Coordinates
version=1
nRows=10
nColumns=63
inDegrees=yes

Units are S.I. units (second, meters, Newtons, ...)
If the header above contains a line with 'inDegrees', this indicates whether rotational values are in degrees (yes) or radians (no).

endheader
time	pelvis_tilt	pelvis_list	pelvis_rotation	pelvis_tx	pelvis_ty	pelvis_tz	hip_flexion_r	hip_adduction_r	hip_rotation_r	knee_angle_r	knee_angle_r_beta	ankle_angle_r	subtalar_angle_r	mtp_angle_r	hip_flexion_l	hip_adduction_l	hip_rotation_l	knee_angle_l	knee_angle_l_beta	ankle_angle_l	subtalar_angle_l	mtp_angle_l	L5_S1_Flex_Ext	L5_S1_Lat_Bending	L5_S1_axial_rotation	L4_L5_Flex_Ext	L4_L5_Lat_Bending	L4_L5_axial_rotation	L3_L4_Flex_Ext	L3_L4_Lat_Bending	L3_L4_axial_rotation	L2_L3_Flex_Ext	L2_L3_Lat_Bending	L2_L3_axial_rotation	L1_L2_Flex_Ext	L1_L2_Lat_Bending	L1_L2_axial_rotation	L1_T12_Flex_Ext	L1_T12_Lat_Bending	L1_T12_axial_rotation	Abs_r3	Abs_r2	Abs_r1	Abs_t1	Abs_t2	neck_flexion	neck_bending	neck_rotation	arm_flex_r	arm_add_r	arm_rot_r	elbow_flex_r	pro_sup_r	wrist_flex_r	wrist_dev_r	arm_flex_l	arm_add_l	arm_rot_l	elbow_flex_l	pro_sup_l	wrist_flex_l	wrist_dev_l
1.019608	8.589405	-1.978155	85.148719	0.486065	0.515706	0.720149	2.350624	7.715890	11.523223	0.895994	0.015638	19.504663	-13.552698	0.000000	9.006828	-7.466221	-6.419105	15.967172	0.278680	34.442702	-2.775364	0.000000	0.038731	0.614753	1.392125	0.071928	0.817621	1.479133	0.063632	1.494709	1.479133	0.044266	1.494709	1.218110	0.035966	1.253603	1.131102	0.022131	0.952252	1.044094	0.276655	6.954203	7.742582	0.000000	0.000000	27.934734	-1.159857	-0.577084	23.053239	-0.953167	95.603477	16.243017	17.288523	-4.947216	-5.933922	21.333628	5.090683	107.517511	14.278192	21.147513	-6.999739	-8.431156
1.039216	8.680474	-1.757227	85.235671	0.485196	0.515050	0.718251	1.897359	7.690683	11.711597	0.853915	0.014904	19.598377	-13.677267	0.000000	8.512758	-7.431425	-6.220934	15.648287	0.273114	34.680029	-2.865672	0.000000	0.028843	0.643032	1.411034	0.053565	0.855232	1.499223	0.047387	1.563468	1.499223	0.032965	1.563468	1.234655	0.026784	1.311271	1.146465	0.016481	0.996056	1.058275	0.206025	7.274105	7.847746	0.000000	0.000000	27.952111	-1.402522	0.066969	22.756010	-1.938099	100.878327	14.018496	15.485512	-4.952696	-7.467561	20.797753	3.901872	106.967880	14.312364	21.378393	-7.357946	-8.303555
1.058824	8.794280	-1.530073	85.281094	0.484370	0.514266	0.716175	1.414663	7.685599	11.915841	0.812200	0.014176	19.704789	-13.783328	0.000000	8.036024	-7.413057	-5.927110	15.439542	0.269471	35.015008	-3.139461	0.000000	0.019967	0.675206	1.437870	0.037080	0.898025	1.527737	0.032803	1.641697	1.527737	0.022820	1.641697	1.258136	0.018541	1.376881	1.168269	0.011409	1.045895	1.078402	0.142621	7.638071	7.997000	0.000000	0.000000	27.977186	-1.597598	0.810643	22.213425	-2.981148	105.947676	11.830817	13.159543	-5.151879	-8.608752	20.255587	2.796396	108.789888	14.023225	21.130824	-8.029268	-8.029840
1.078431	8.974038	-1.300354	85.309436	0.483513	0.513365	0.714052	0.919329	7.745432	12.075553	0.776780	0.013557	19.819954	-13.832842	0.000000	7.621951	-7.450033	-5.481563	15.408115	0.268922	35.441384	-3.627465	0.000000	0.010849	0.716746	1.467116	0.020148	0.953272	1.558811	0.017824	1.742695	1.558811	0.012400	1.742695	1.283727	0.010075	1.461588	1.192032	0.006199	1.110239	1.100337	0.077496	8.107970	8.159662	0.000000	0.000000	28.008353	-1.726652	1.680052	21.471935	-4.120517	110.529104	9.796255	10.385097	-5.475580	-9.334333	19.726195	1.809354	112.479214	13.372913	20.357908	-8.887706	-7.684977
1.098039	9.230044	-1.064337	85.349840	0.482575	0.512386	0.712001	0.422764	7.881645	12.177095	0.749446	0.013080	19.934299	-13.859228	0.000000	7.294955	-7.541893	-4.816469	15.580477	0.271931	35.918109	-4.369837	0.000000	-0.000274	0.768365	1.493508	-0.000508	1.021925	1.586852	-0.000450	1.868201	1.586852	-0.000313	1.868201	1.306819	-0.000254	1.566849	1.213475	-0.000156	1.190197	1.120131	-0.001956	8.691893	8.306443	0.000000	0.000000	28.041604	-1.765933	2.658347	20.590528	-5.362350	114.337316	8.022906	7.288398	-5.798348	-9.700769	19.220323	0.966229	117.600622	12.342162	18.934305	-9.777644	-7.264528
1.117647	9.590640	-0.822329	85.411809	0.481546	0.511381	0.710143	-0.058765	8.127074	12.189508	0.736822	0.012860	20.047286	-13.832275	0.000000	7.080249	-7.719477	-3.942134	15.986221	0.279012	36.426315	-5.348301	0.000000	-0.014477	0.832662	1.519213	-0.026885	1.107441	1.614164	-0.023784	2.024534	1.614164	-0.016546	2.024534	1.329311	-0.013443	1.697964	1.234360	-0.008272	1.289793	1.139410	-0.103407	9.419239	8.449406	0.000000	0.000000	28.071743	-1.763621	3.649081	19.590324	-6.705467	117.025878	6.625056	4.212406	-6.062459	-9.843760	18.768677	0.311525	123.580476	10.989286	16.912574	-10.703392	-6.778235
1.137255	10.015792	-0.565943	85.534538	0.480439	0.510410	0.708525	-0.524766	8.446457	12.149211	0.733730	0.012806	20.153393	-13.843606	0.000000	6.963885	-7.944882	-2.875001	16.580303	0.289381	36.937538	-6.486784	0.000000	-0.033117	0.902902	1.539876	-0.061502	1.200859	1.636118	-0.054408	2.195315	1.636118	-0.037850	2.195315	1.347391	-0.030753	1.841197	1.251149	-0.018923	1.398595	1.154907	-0.236553	10.213806	8.564327	0.000000	0.000000	28.091653	-1.718977	4.547886	18.483499	-8.089450	118.318245	5.648557	1.836355	-6.313883	-9.846704	18.417275	-0.152361	130.368222	9.317739	14.188393	-11.555848	-6.294280
1.156863	10.486927	-0.303228	85.738957	0.479301	0.509499	0.707189	-0.956754	8.829228	12.025668	0.739965	0.012915	20.259346	-13.874117	0.000000	6.954799	-8.207396	-1.663851	17.340612	0.302651	37.449895	-7.695894	0.000000	-0.054941	0.974351	1.553160	-0.102032	1.295887	1.650232	-0.090263	2.369038	1.650232	-0.062793	2.369038	1.359015	-0.051019	1.986897	1.261942	-0.031394	1.509270	1.164870	-0.392441	11.022056	8.638209	0.000000	0.000000	28.100160	-1.646839	5.224317	17.284977	-9.482664	117.999970	5.153360	0.455823	-6.635019	-9.762466	18.178303	-0.441027	137.556262	7.395931	10.790225	-12.253256	-5.986086
1.176471	10.961863	-0.028582	86.034560	0.478214	0.508686	0.706137	-1.358469	9.239205	11.829659	0.751875	0.013123	20.370883	-13.934396	0.000000	7.029049	-8.476083	-0.377714	18.219210	0.317985	37.937345	-8.884369	0.000000	-0.080332	1.039519	1.559732	-0.149184	1.382560	1.657215	-0.131977	2.527487	1.657215	-0.091811	2.527487	1.364766	-0.074596	2.119787	1.267282	-0.045901	1.610215	1.169799	-0.573801	11.759247	8.674762	0.000000	0.000000	28.097746	-1.558380	5.558965	16.034545	-10.838656	116.108936	5.104997	-0.003829	-7.052534	-9.623227	18.125111	-0.730263	143.825070	5.643226	6.789075	-12.699946	-5.990503
1.196078	11.382078	0.236469	86.442442	0.477328	0.507922	0.705304	-1.706438	9.629905	11.570729	0.766094	0.013371	20.507282	-14.051754	0.000000	7.192441	-8.709104	0.923413	19.169313	0.334568	38.389386	-9.946304	0.000000	-0.105232	1.089866	1.544835	-0.195427	1.449522	1.641387	-0.172886	2.649901	1.641387	-0.120270	2.649901	1.351731	-0.097719	2.222456	1.255179	-0.060130	1.688203	1.158626	-0.751664	12.328787	8.591910	0.000000	0.000000	28.093674	-1.387775	5.622555	14.823433	-12.069704	113.115014	5.382495	-0.031291	-7.535359	-9.469517	17.836686	-1.499843	145.430303	4.792775	4.818733	-13.254609	-5.755476
